<svg width="1440" height="1024" viewBox="0 0 1440 1024" fill="none" xmlns="http://www.w3.org/2000/svg">
<g clip-path="url(#clip0_63_2746)">
<rect width="1440" height="1024" fill="url(#paint0_linear_63_2746)"/>
<g filter="url(#filter0_f_63_2746)">
<path d="M1505.62 843.612C1458.85 969.08 1719.01 996.678 1696 1003.5C1578.13 1071.47 1232.08 1234.7 1144 1212C1033.89 1183.63 952.133 904.557 1173.41 942.101C1358.16 973.449 1110.84 547.318 1349.4 528.744C1451.69 520.779 1552.38 718.144 1505.62 843.612Z" fill="url(#paint1_linear_63_2746)" fill-opacity="0.4"/>
</g>
<g filter="url(#filter1_f_63_2746)">
<ellipse cx="-105.541" cy="328.486" rx="178.588" ry="188.469" transform="rotate(-9.94718 -105.541 328.486)" fill="#7BC6C1"/>
</g>
<g filter="url(#filter2_f_63_2746)">
<ellipse cx="839.035" cy="406.778" rx="65.7899" ry="50.4676" transform="rotate(3.8565 839.035 406.778)" fill="#FFE678"/>
</g>
</g>
<defs>
<filter id="filter0_f_63_2746" x="819.676" y="314.51" width="1091.77" height="1113.64" filterUnits="userSpaceOnUse" color-interpolation-filters="sRGB">
<feFlood flood-opacity="0" result="BackgroundImageFix"/>
<feBlend mode="normal" in="SourceGraphic" in2="BackgroundImageFix" result="shape"/>
<feGaussianBlur stdDeviation="107" result="effect1_foregroundBlur_63_2746"/>
</filter>
<filter id="filter1_f_63_2746" x="-734.463" y="-309.725" width="1257.84" height="1276.42" filterUnits="userSpaceOnUse" color-interpolation-filters="sRGB">
<feFlood flood-opacity="0" result="BackgroundImageFix"/>
<feBlend mode="normal" in="SourceGraphic" in2="BackgroundImageFix" result="shape"/>
<feGaussianBlur stdDeviation="225" result="effect1_foregroundBlur_63_2746"/>
</filter>
<filter id="filter2_f_63_2746" x="473.305" y="56.2285" width="731.46" height="701.1" filterUnits="userSpaceOnUse" color-interpolation-filters="sRGB">
<feFlood flood-opacity="0" result="BackgroundImageFix"/>
<feBlend mode="normal" in="SourceGraphic" in2="BackgroundImageFix" result="shape"/>
<feGaussianBlur stdDeviation="150" result="effect1_foregroundBlur_63_2746"/>
</filter>
<linearGradient id="paint0_linear_63_2746" x1="720" y1="0" x2="720" y2="1024" gradientUnits="userSpaceOnUse">
<stop stop-color="#4C5159"/>
<stop offset="1" stop-color="#373940"/>
</linearGradient>
<linearGradient id="paint1_linear_63_2746" x1="1457.3" y1="1062.37" x2="1082.51" y2="661.88" gradientUnits="userSpaceOnUse">
<stop stop-color="#C2F9C9"/>
<stop offset="1" stop-color="#7BC6C1" stop-opacity="0"/>
</linearGradient>
<clipPath id="clip0_63_2746">
<rect width="1440" height="1024" fill="white"/>
</clipPath>
</defs>
</svg>
